<svg id="visual" viewBox="0 0 960 540" width="960" height="540" xmlns="http://www.w3.org/2000/svg" xmlns:xlink="http://www.w3.org/1999/xlink" version="1.1"><path d="M0 435L17.8 434.3C35.7 433.7 71.3 432.3 106.8 426.8C142.3 421.3 177.7 411.7 213.2 415.5C248.7 419.3 284.3 436.7 320 437.5C355.7 438.3 391.3 422.7 426.8 418.2C462.3 413.7 497.7 420.3 533.2 423.8C568.7 427.3 604.3 427.7 640 423.3C675.7 419 711.3 410 746.8 412.8C782.3 415.7 817.7 430.3 853.2 434C888.7 437.7 924.3 430.3 942.2 426.7L960 423L960 541L942.2 541C924.3 541 888.7 541 853.2 541C817.7 541 782.3 541 746.8 541C711.3 541 675.7 541 640 541C604.3 541 568.7 541 533.2 541C497.7 541 462.3 541 426.8 541C391.3 541 355.7 541 320 541C284.3 541 248.7 541 213.2 541C177.7 541 142.3 541 106.8 541C71.3 541 35.7 541 17.8 541L0 541Z" fill="#f6f6f6"></path><path d="M0 443L17.8 440.5C35.7 438 71.3 433 106.8 429.7C142.3 426.3 177.7 424.7 213.2 429.2C248.7 433.7 284.3 444.3 320 448.7C355.7 453 391.3 451 426.8 445.5C462.3 440 497.7 431 533.2 434.8C568.7 438.7 604.3 455.3 640 462.2C675.7 469 711.3 466 746.8 459.3C782.3 452.7 817.7 442.3 853.2 438.7C888.7 435 924.3 438 942.2 439.5L960 441L960 541L942.2 541C924.3 541 888.7 541 853.2 541C817.7 541 782.3 541 746.8 541C711.3 541 675.7 541 640 541C604.3 541 568.7 541 533.2 541C497.7 541 462.3 541 426.8 541C391.3 541 355.7 541 320 541C284.3 541 248.7 541 213.2 541C177.7 541 142.3 541 106.8 541C71.3 541 35.7 541 17.8 541L0 541Z" fill="#fdddc3"></path><path d="M0 481L17.8 475.7C35.7 470.3 71.3 459.7 106.8 454.7C142.3 449.7 177.7 450.3 213.2 452.8C248.7 455.3 284.3 459.7 320 460.3C355.7 461 391.3 458 426.8 461.8C462.3 465.7 497.7 476.3 533.2 481C568.7 485.7 604.3 484.3 640 482.2C675.7 480 711.3 477 746.8 475.8C782.3 474.7 817.7 475.3 853.2 472.7C888.7 470 924.3 464 942.2 461L960 458L960 541L942.2 541C924.3 541 888.7 541 853.2 541C817.7 541 782.3 541 746.8 541C711.3 541 675.7 541 640 541C604.3 541 568.7 541 533.2 541C497.7 541 462.3 541 426.8 541C391.3 541 355.7 541 320 541C284.3 541 248.7 541 213.2 541C177.7 541 142.3 541 106.8 541C71.3 541 35.7 541 17.8 541L0 541Z" fill="#ffc491"></path><path d="M0 494L17.8 493C35.7 492 71.3 490 106.8 492.2C142.3 494.3 177.7 500.7 213.2 499.7C248.7 498.7 284.3 490.3 320 484.3C355.7 478.3 391.3 474.7 426.8 477.2C462.3 479.7 497.7 488.3 533.2 490.5C568.7 492.7 604.3 488.3 640 490C675.7 491.7 711.3 499.3 746.8 497.8C782.3 496.3 817.7 485.7 853.2 484.8C888.7 484 924.3 493 942.2 497.5L960 502L960 541L942.2 541C924.3 541 888.7 541 853.2 541C817.7 541 782.3 541 746.8 541C711.3 541 675.7 541 640 541C604.3 541 568.7 541 533.2 541C497.7 541 462.3 541 426.8 541C391.3 541 355.7 541 320 541C284.3 541 248.7 541 213.2 541C177.7 541 142.3 541 106.8 541C71.3 541 35.7 541 17.8 541L0 541Z" fill="#feab5f"></path><path d="M0 510L17.8 510.3C35.7 510.7 71.3 511.3 106.8 511.7C142.3 512 177.7 512 213.2 511.2C248.7 510.3 284.3 508.7 320 510.8C355.7 513 391.3 519 426.8 519.7C462.3 520.3 497.7 515.7 533.2 512.3C568.7 509 604.3 507 640 506.7C675.7 506.3 711.3 507.7 746.8 508.2C782.3 508.7 817.7 508.3 853.2 507C888.7 505.7 924.3 503.3 942.2 502.2L960 501L960 541L942.2 541C924.3 541 888.7 541 853.2 541C817.7 541 782.3 541 746.8 541C711.3 541 675.7 541 640 541C604.3 541 568.7 541 533.2 541C497.7 541 462.3 541 426.8 541C391.3 541 355.7 541 320 541C284.3 541 248.7 541 213.2 541C177.7 541 142.3 541 106.8 541C71.3 541 35.7 541 17.8 541L0 541Z" fill="#f99226"></path></svg>