<?xml version="1.0" standalone="no"?>
<svg xmlns:xlink="http://www.w3.org/1999/xlink" id="wave" style="transform:rotate(0deg); transition: 0.3s" viewBox="0 0 1440 350" version="1.1" xmlns="http://www.w3.org/2000/svg"><defs><linearGradient id="sw-gradient-0" x1="0" x2="0" y1="1" y2="0"><stop stop-color="rgba(243, 106, 62, 1)" offset="0%"/><stop stop-color="rgba(255, 179, 11, 0.21)" offset="100%"/></linearGradient></defs><path style="transform:translate(0, 0px); opacity:1" fill="url(#sw-gradient-0)" d="M0,70L60,93.3C120,117,240,163,360,169.2C480,175,600,140,720,134.2C840,128,960,152,1080,163.3C1200,175,1320,175,1440,151.7C1560,128,1680,82,1800,87.5C1920,93,2040,152,2160,163.3C2280,175,2400,140,2520,128.3C2640,117,2760,128,2880,116.7C3000,105,3120,70,3240,75.8C3360,82,3480,128,3600,122.5C3720,117,3840,58,3960,70C4080,82,4200,163,4320,169.2C4440,175,4560,105,4680,99.2C4800,93,4920,152,5040,145.8C5160,140,5280,70,5400,87.5C5520,105,5640,210,5760,256.7C5880,303,6000,292,6120,285.8C6240,280,6360,280,6480,280C6600,280,6720,280,6840,262.5C6960,245,7080,210,7200,198.3C7320,187,7440,198,7560,192.5C7680,187,7800,163,7920,128.3C8040,93,8160,47,8280,40.8C8400,35,8520,70,8580,87.5L8640,105L8640,350L8580,350C8520,350,8400,350,8280,350C8160,350,8040,350,7920,350C7800,350,7680,350,7560,350C7440,350,7320,350,7200,350C7080,350,6960,350,6840,350C6720,350,6600,350,6480,350C6360,350,6240,350,6120,350C6000,350,5880,350,5760,350C5640,350,5520,350,5400,350C5280,350,5160,350,5040,350C4920,350,4800,350,4680,350C4560,350,4440,350,4320,350C4200,350,4080,350,3960,350C3840,350,3720,350,3600,350C3480,350,3360,350,3240,350C3120,350,3000,350,2880,350C2760,350,2640,350,2520,350C2400,350,2280,350,2160,350C2040,350,1920,350,1800,350C1680,350,1560,350,1440,350C1320,350,1200,350,1080,350C960,350,840,350,720,350C600,350,480,350,360,350C240,350,120,350,60,350L0,350Z"/><defs><linearGradient id="sw-gradient-1" x1="0" x2="0" y1="1" y2="0"><stop stop-color="rgba(243, 106, 62, 1)" offset="0%"/><stop stop-color="rgba(255, 179, 11, 1)" offset="100%"/></linearGradient></defs><path style="transform:translate(0, 50px); opacity:0.9" fill="url(#sw-gradient-1)" d="M0,175L60,175C120,175,240,175,360,151.7C480,128,600,82,720,70C840,58,960,82,1080,81.7C1200,82,1320,58,1440,40.8C1560,23,1680,12,1800,11.7C1920,12,2040,23,2160,29.2C2280,35,2400,35,2520,35C2640,35,2760,35,2880,81.7C3000,128,3120,222,3240,268.3C3360,315,3480,315,3600,291.7C3720,268,3840,222,3960,192.5C4080,163,4200,152,4320,157.5C4440,163,4560,187,4680,175C4800,163,4920,117,5040,93.3C5160,70,5280,70,5400,105C5520,140,5640,210,5760,221.7C5880,233,6000,187,6120,157.5C6240,128,6360,117,6480,116.7C6600,117,6720,128,6840,116.7C6960,105,7080,70,7200,58.3C7320,47,7440,58,7560,93.3C7680,128,7800,187,7920,204.2C8040,222,8160,198,8280,186.7C8400,175,8520,175,8580,175L8640,175L8640,350L8580,350C8520,350,8400,350,8280,350C8160,350,8040,350,7920,350C7800,350,7680,350,7560,350C7440,350,7320,350,7200,350C7080,350,6960,350,6840,350C6720,350,6600,350,6480,350C6360,350,6240,350,6120,350C6000,350,5880,350,5760,350C5640,350,5520,350,5400,350C5280,350,5160,350,5040,350C4920,350,4800,350,4680,350C4560,350,4440,350,4320,350C4200,350,4080,350,3960,350C3840,350,3720,350,3600,350C3480,350,3360,350,3240,350C3120,350,3000,350,2880,350C2760,350,2640,350,2520,350C2400,350,2280,350,2160,350C2040,350,1920,350,1800,350C1680,350,1560,350,1440,350C1320,350,1200,350,1080,350C960,350,840,350,720,350C600,350,480,350,360,350C240,350,120,350,60,350L0,350Z"/><defs><linearGradient id="sw-gradient-2" x1="0" x2="0" y1="1" y2="0"><stop stop-color="rgba(243, 106, 62, 1)" offset="0%"/><stop stop-color="rgba(255, 179, 11, 1)" offset="100%"/></linearGradient></defs><path style="transform:translate(0, 100px); opacity:0.8" fill="url(#sw-gradient-2)" d="M0,245L60,221.7C120,198,240,152,360,157.5C480,163,600,222,720,204.2C840,187,960,93,1080,58.3C1200,23,1320,47,1440,70C1560,93,1680,117,1800,157.5C1920,198,2040,257,2160,280C2280,303,2400,292,2520,250.8C2640,210,2760,140,2880,93.3C3000,47,3120,23,3240,64.2C3360,105,3480,210,3600,233.3C3720,257,3840,198,3960,175C4080,152,4200,163,4320,145.8C4440,128,4560,82,4680,58.3C4800,35,4920,35,5040,81.7C5160,128,5280,222,5400,221.7C5520,222,5640,128,5760,87.5C5880,47,6000,58,6120,52.5C6240,47,6360,23,6480,35C6600,47,6720,93,6840,128.3C6960,163,7080,187,7200,204.2C7320,222,7440,233,7560,245C7680,257,7800,268,7920,227.5C8040,187,8160,93,8280,70C8400,47,8520,93,8580,116.7L8640,140L8640,350L8580,350C8520,350,8400,350,8280,350C8160,350,8040,350,7920,350C7800,350,7680,350,7560,350C7440,350,7320,350,7200,350C7080,350,6960,350,6840,350C6720,350,6600,350,6480,350C6360,350,6240,350,6120,350C6000,350,5880,350,5760,350C5640,350,5520,350,5400,350C5280,350,5160,350,5040,350C4920,350,4800,350,4680,350C4560,350,4440,350,4320,350C4200,350,4080,350,3960,350C3840,350,3720,350,3600,350C3480,350,3360,350,3240,350C3120,350,3000,350,2880,350C2760,350,2640,350,2520,350C2400,350,2280,350,2160,350C2040,350,1920,350,1800,350C1680,350,1560,350,1440,350C1320,350,1200,350,1080,350C960,350,840,350,720,350C600,350,480,350,360,350C240,350,120,350,60,350L0,350Z"/><defs><linearGradient id="sw-gradient-3" x1="0" x2="0" y1="1" y2="0"><stop stop-color="rgba(243, 106, 62, 1)" offset="0%"/><stop stop-color="rgba(255, 179, 11, 1)" offset="100%"/></linearGradient></defs><path style="transform:translate(0, 150px); opacity:0.7" fill="url(#sw-gradient-3)" d="M0,140L60,169.2C120,198,240,257,360,250.8C480,245,600,175,720,122.5C840,70,960,35,1080,52.5C1200,70,1320,140,1440,163.3C1560,187,1680,163,1800,180.8C1920,198,2040,257,2160,239.2C2280,222,2400,128,2520,128.3C2640,128,2760,222,2880,227.5C3000,233,3120,152,3240,105C3360,58,3480,47,3600,64.2C3720,82,3840,128,3960,134.2C4080,140,4200,105,4320,105C4440,105,4560,140,4680,140C4800,140,4920,105,5040,105C5160,105,5280,140,5400,128.3C5520,117,5640,58,5760,52.5C5880,47,6000,93,6120,145.8C6240,198,6360,257,6480,280C6600,303,6720,292,6840,250.8C6960,210,7080,140,7200,122.5C7320,105,7440,140,7560,175C7680,210,7800,245,7920,256.7C8040,268,8160,257,8280,227.5C8400,198,8520,152,8580,128.3L8640,105L8640,350L8580,350C8520,350,8400,350,8280,350C8160,350,8040,350,7920,350C7800,350,7680,350,7560,350C7440,350,7320,350,7200,350C7080,350,6960,350,6840,350C6720,350,6600,350,6480,350C6360,350,6240,350,6120,350C6000,350,5880,350,5760,350C5640,350,5520,350,5400,350C5280,350,5160,350,5040,350C4920,350,4800,350,4680,350C4560,350,4440,350,4320,350C4200,350,4080,350,3960,350C3840,350,3720,350,3600,350C3480,350,3360,350,3240,350C3120,350,3000,350,2880,350C2760,350,2640,350,2520,350C2400,350,2280,350,2160,350C2040,350,1920,350,1800,350C1680,350,1560,350,1440,350C1320,350,1200,350,1080,350C960,350,840,350,720,350C600,350,480,350,360,350C240,350,120,350,60,350L0,350Z"/></svg>