<?xml version="1.0" standalone="no"?>
<svg xmlns:xlink="http://www.w3.org/1999/xlink" id="wave" style="transform:rotate(0deg); transition: 0.3s" viewBox="0 0 1440 320" version="1.1" xmlns="http://www.w3.org/2000/svg"><defs><linearGradient id="sw-gradient-0" x1="0" x2="0" y1="1" y2="0"><stop stop-color="rgba(243.936, 243.936, 243.936, 1)" offset="0%"/><stop stop-color="rgba(255, 179, 11, 1)" offset="100%"/></linearGradient></defs><path style="transform:translate(0, 0px); opacity:1" fill="url(#sw-gradient-0)" d="M0,256L40,256C80,256,160,256,240,229.3C320,203,400,149,480,144C560,139,640,181,720,202.7C800,224,880,224,960,208C1040,192,1120,160,1200,160C1280,160,1360,192,1440,218.7C1520,245,1600,267,1680,229.3C1760,192,1840,96,1920,96C2000,96,2080,192,2160,224C2240,256,2320,224,2400,181.3C2480,139,2560,85,2640,69.3C2720,53,2800,75,2880,117.3C2960,160,3040,224,3120,213.3C3200,203,3280,117,3360,80C3440,43,3520,53,3600,85.3C3680,117,3760,171,3840,186.7C3920,203,4000,181,4080,192C4160,203,4240,245,4320,256C4400,267,4480,245,4560,197.3C4640,149,4720,75,4800,42.7C4880,11,4960,21,5040,58.7C5120,96,5200,160,5280,154.7C5360,149,5440,75,5520,53.3C5600,32,5680,64,5720,80L5760,96L5760,320L5720,320C5680,320,5600,320,5520,320C5440,320,5360,320,5280,320C5200,320,5120,320,5040,320C4960,320,4880,320,4800,320C4720,320,4640,320,4560,320C4480,320,4400,320,4320,320C4240,320,4160,320,4080,320C4000,320,3920,320,3840,320C3760,320,3680,320,3600,320C3520,320,3440,320,3360,320C3280,320,3200,320,3120,320C3040,320,2960,320,2880,320C2800,320,2720,320,2640,320C2560,320,2480,320,2400,320C2320,320,2240,320,2160,320C2080,320,2000,320,1920,320C1840,320,1760,320,1680,320C1600,320,1520,320,1440,320C1360,320,1280,320,1200,320C1120,320,1040,320,960,320C880,320,800,320,720,320C640,320,560,320,480,320C400,320,320,320,240,320C160,320,80,320,40,320L0,320Z"/><defs><linearGradient id="sw-gradient-1" x1="0" x2="0" y1="1" y2="0"><stop stop-color="rgba(255, 255, 255, 1)" offset="0%"/><stop stop-color="rgba(255, 179, 11, 1)" offset="100%"/></linearGradient></defs><path style="transform:translate(0, 50px); opacity:0.9" fill="url(#sw-gradient-1)" d="M0,96L40,112C80,128,160,160,240,181.3C320,203,400,213,480,229.3C560,245,640,267,720,245.3C800,224,880,160,960,138.7C1040,117,1120,139,1200,133.3C1280,128,1360,96,1440,90.7C1520,85,1600,107,1680,138.7C1760,171,1840,213,1920,240C2000,267,2080,277,2160,282.7C2240,288,2320,288,2400,277.3C2480,267,2560,245,2640,202.7C2720,160,2800,96,2880,106.7C2960,117,3040,203,3120,208C3200,213,3280,139,3360,96C3440,53,3520,43,3600,80C3680,117,3760,203,3840,202.7C3920,203,4000,117,4080,112C4160,107,4240,181,4320,181.3C4400,181,4480,107,4560,96C4640,85,4720,139,4800,138.7C4880,139,4960,85,5040,58.7C5120,32,5200,32,5280,26.7C5360,21,5440,11,5520,42.7C5600,75,5680,149,5720,186.7L5760,224L5760,320L5720,320C5680,320,5600,320,5520,320C5440,320,5360,320,5280,320C5200,320,5120,320,5040,320C4960,320,4880,320,4800,320C4720,320,4640,320,4560,320C4480,320,4400,320,4320,320C4240,320,4160,320,4080,320C4000,320,3920,320,3840,320C3760,320,3680,320,3600,320C3520,320,3440,320,3360,320C3280,320,3200,320,3120,320C3040,320,2960,320,2880,320C2800,320,2720,320,2640,320C2560,320,2480,320,2400,320C2320,320,2240,320,2160,320C2080,320,2000,320,1920,320C1840,320,1760,320,1680,320C1600,320,1520,320,1440,320C1360,320,1280,320,1200,320C1120,320,1040,320,960,320C880,320,800,320,720,320C640,320,560,320,480,320C400,320,320,320,240,320C160,320,80,320,40,320L0,320Z"/><defs><linearGradient id="sw-gradient-2" x1="0" x2="0" y1="1" y2="0"><stop stop-color="rgba(243, 106, 62, 1)" offset="0%"/><stop stop-color="rgba(255, 179, 11, 1)" offset="100%"/></linearGradient></defs><path style="transform:translate(0, 100px); opacity:0.8" fill="url(#sw-gradient-2)" d="M0,224L40,213.3C80,203,160,181,240,149.3C320,117,400,75,480,74.7C560,75,640,117,720,133.3C800,149,880,139,960,144C1040,149,1120,171,1200,170.7C1280,171,1360,149,1440,128C1520,107,1600,85,1680,106.7C1760,128,1840,192,1920,181.3C2000,171,2080,85,2160,53.3C2240,21,2320,43,2400,85.3C2480,128,2560,192,2640,186.7C2720,181,2800,107,2880,64C2960,21,3040,11,3120,53.3C3200,96,3280,192,3360,240C3440,288,3520,288,3600,277.3C3680,267,3760,245,3840,218.7C3920,192,4000,160,4080,170.7C4160,181,4240,235,4320,261.3C4400,288,4480,288,4560,266.7C4640,245,4720,203,4800,160C4880,117,4960,75,5040,96C5120,117,5200,203,5280,213.3C5360,224,5440,160,5520,133.3C5600,107,5680,117,5720,122.7L5760,128L5760,320L5720,320C5680,320,5600,320,5520,320C5440,320,5360,320,5280,320C5200,320,5120,320,5040,320C4960,320,4880,320,4800,320C4720,320,4640,320,4560,320C4480,320,4400,320,4320,320C4240,320,4160,320,4080,320C4000,320,3920,320,3840,320C3760,320,3680,320,3600,320C3520,320,3440,320,3360,320C3280,320,3200,320,3120,320C3040,320,2960,320,2880,320C2800,320,2720,320,2640,320C2560,320,2480,320,2400,320C2320,320,2240,320,2160,320C2080,320,2000,320,1920,320C1840,320,1760,320,1680,320C1600,320,1520,320,1440,320C1360,320,1280,320,1200,320C1120,320,1040,320,960,320C880,320,800,320,720,320C640,320,560,320,480,320C400,320,320,320,240,320C160,320,80,320,40,320L0,320Z"/><defs><linearGradient id="sw-gradient-3" x1="0" x2="0" y1="1" y2="0"><stop stop-color="rgba(243, 106, 62, 1)" offset="0%"/><stop stop-color="rgba(255, 179, 11, 1)" offset="100%"/></linearGradient></defs><path style="transform:translate(0, 150px); opacity:0.7" fill="url(#sw-gradient-3)" d="M0,160L40,176C80,192,160,224,240,208C320,192,400,128,480,101.3C560,75,640,85,720,85.3C800,85,880,75,960,90.7C1040,107,1120,149,1200,144C1280,139,1360,85,1440,85.3C1520,85,1600,139,1680,165.3C1760,192,1840,192,1920,186.7C2000,181,2080,171,2160,181.3C2240,192,2320,224,2400,229.3C2480,235,2560,213,2640,186.7C2720,160,2800,128,2880,96C2960,64,3040,32,3120,21.3C3200,11,3280,21,3360,48C3440,75,3520,117,3600,149.3C3680,181,3760,203,3840,181.3C3920,160,4000,96,4080,58.7C4160,21,4240,11,4320,32C4400,53,4480,107,4560,106.7C4640,107,4720,53,4800,53.3C4880,53,4960,107,5040,117.3C5120,128,5200,96,5280,74.7C5360,53,5440,43,5520,58.7C5600,75,5680,117,5720,138.7L5760,160L5760,320L5720,320C5680,320,5600,320,5520,320C5440,320,5360,320,5280,320C5200,320,5120,320,5040,320C4960,320,4880,320,4800,320C4720,320,4640,320,4560,320C4480,320,4400,320,4320,320C4240,320,4160,320,4080,320C4000,320,3920,320,3840,320C3760,320,3680,320,3600,320C3520,320,3440,320,3360,320C3280,320,3200,320,3120,320C3040,320,2960,320,2880,320C2800,320,2720,320,2640,320C2560,320,2480,320,2400,320C2320,320,2240,320,2160,320C2080,320,2000,320,1920,320C1840,320,1760,320,1680,320C1600,320,1520,320,1440,320C1360,320,1280,320,1200,320C1120,320,1040,320,960,320C880,320,800,320,720,320C640,320,560,320,480,320C400,320,320,320,240,320C160,320,80,320,40,320L0,320Z"/></svg>